<mxfile host="Electron" modified="2023-04-18T15:53:17.700Z" agent="Mozilla/5.0 (Windows NT 10.0; Win64; x64) AppleWebKit/537.36 (KHTML, like Gecko) draw.io/21.1.2 Chrome/106.0.5249.199 Electron/21.4.3 Safari/537.36" etag="slS5bGBKU1JuFnQdhA3t" version="21.1.2" type="device">
  <diagram id="R2lEEEUBdFMjLlhIrx00" name="Page-1">
    <mxGraphModel dx="2899" dy="1194" grid="1" gridSize="10" guides="1" tooltips="1" connect="1" arrows="1" fold="1" page="1" pageScale="1" pageWidth="850" pageHeight="1100" math="0" shadow="0" extFonts="Permanent Marker^https://fonts.googleapis.com/css?family=Permanent+Marker">
      <root>
        <mxCell id="0" />
        <mxCell id="1" parent="0" />
        <mxCell id="gvvhsyVztJGPLxeGBP7d-27" style="orthogonalLoop=1;jettySize=auto;html=1;exitX=0.25;exitY=1;exitDx=0;exitDy=0;rounded=0;strokeColor=default;" edge="1" parent="1" source="gvvhsyVztJGPLxeGBP7d-4" target="gvvhsyVztJGPLxeGBP7d-19">
          <mxGeometry relative="1" as="geometry" />
        </mxCell>
        <mxCell id="gvvhsyVztJGPLxeGBP7d-126" value="n" style="edgeLabel;html=1;align=center;verticalAlign=middle;resizable=0;points=[];" vertex="1" connectable="0" parent="gvvhsyVztJGPLxeGBP7d-27">
          <mxGeometry x="0.5629" y="-1" relative="1" as="geometry">
            <mxPoint x="-1" as="offset" />
          </mxGeometry>
        </mxCell>
        <mxCell id="gvvhsyVztJGPLxeGBP7d-32" style="rounded=0;orthogonalLoop=1;jettySize=auto;html=1;exitX=1;exitY=0.5;exitDx=0;exitDy=0;entryX=0;entryY=0.5;entryDx=0;entryDy=0;" edge="1" parent="1" source="gvvhsyVztJGPLxeGBP7d-4" target="gvvhsyVztJGPLxeGBP7d-20">
          <mxGeometry relative="1" as="geometry" />
        </mxCell>
        <mxCell id="gvvhsyVztJGPLxeGBP7d-123" value="n" style="edgeLabel;html=1;align=center;verticalAlign=middle;resizable=0;points=[];" vertex="1" connectable="0" parent="gvvhsyVztJGPLxeGBP7d-32">
          <mxGeometry x="-0.5424" y="-1" relative="1" as="geometry">
            <mxPoint as="offset" />
          </mxGeometry>
        </mxCell>
        <mxCell id="gvvhsyVztJGPLxeGBP7d-34" style="rounded=0;orthogonalLoop=1;jettySize=auto;html=1;exitX=0.5;exitY=0;exitDx=0;exitDy=0;entryX=0.5;entryY=1;entryDx=0;entryDy=0;" edge="1" parent="1" source="gvvhsyVztJGPLxeGBP7d-4" target="gvvhsyVztJGPLxeGBP7d-17">
          <mxGeometry relative="1" as="geometry" />
        </mxCell>
        <mxCell id="gvvhsyVztJGPLxeGBP7d-122" value="n" style="edgeLabel;html=1;align=center;verticalAlign=middle;resizable=0;points=[];" vertex="1" connectable="0" parent="gvvhsyVztJGPLxeGBP7d-34">
          <mxGeometry x="-0.6747" relative="1" as="geometry">
            <mxPoint as="offset" />
          </mxGeometry>
        </mxCell>
        <mxCell id="gvvhsyVztJGPLxeGBP7d-35" style="rounded=0;orthogonalLoop=1;jettySize=auto;html=1;exitX=0;exitY=0.5;exitDx=0;exitDy=0;entryX=1;entryY=0.5;entryDx=0;entryDy=0;" edge="1" parent="1" source="gvvhsyVztJGPLxeGBP7d-4" target="gvvhsyVztJGPLxeGBP7d-18">
          <mxGeometry relative="1" as="geometry" />
        </mxCell>
        <mxCell id="gvvhsyVztJGPLxeGBP7d-120" value="1" style="edgeLabel;html=1;align=center;verticalAlign=middle;resizable=0;points=[];" vertex="1" connectable="0" parent="gvvhsyVztJGPLxeGBP7d-35">
          <mxGeometry x="-0.2708" relative="1" as="geometry">
            <mxPoint x="1" y="1" as="offset" />
          </mxGeometry>
        </mxCell>
        <mxCell id="gvvhsyVztJGPLxeGBP7d-46" style="rounded=0;orthogonalLoop=1;jettySize=auto;html=1;exitX=0.127;exitY=0.005;exitDx=0;exitDy=0;entryX=1;entryY=1;entryDx=0;entryDy=0;exitPerimeter=0;" edge="1" parent="1" source="gvvhsyVztJGPLxeGBP7d-4" target="gvvhsyVztJGPLxeGBP7d-45">
          <mxGeometry relative="1" as="geometry" />
        </mxCell>
        <mxCell id="gvvhsyVztJGPLxeGBP7d-47" style="rounded=0;orthogonalLoop=1;jettySize=auto;html=1;exitX=0.75;exitY=0;exitDx=0;exitDy=0;entryX=0.5;entryY=1;entryDx=0;entryDy=0;" edge="1" parent="1" source="gvvhsyVztJGPLxeGBP7d-4" target="gvvhsyVztJGPLxeGBP7d-39">
          <mxGeometry relative="1" as="geometry" />
        </mxCell>
        <mxCell id="gvvhsyVztJGPLxeGBP7d-50" style="rounded=0;orthogonalLoop=1;jettySize=auto;html=1;exitX=0.25;exitY=0;exitDx=0;exitDy=0;entryX=0.5;entryY=1;entryDx=0;entryDy=0;" edge="1" parent="1" source="gvvhsyVztJGPLxeGBP7d-4" target="gvvhsyVztJGPLxeGBP7d-38">
          <mxGeometry relative="1" as="geometry" />
        </mxCell>
        <mxCell id="gvvhsyVztJGPLxeGBP7d-51" style="rounded=0;orthogonalLoop=1;jettySize=auto;html=1;exitX=0;exitY=0.75;exitDx=0;exitDy=0;entryX=1;entryY=0.5;entryDx=0;entryDy=0;" edge="1" parent="1" source="gvvhsyVztJGPLxeGBP7d-4" target="gvvhsyVztJGPLxeGBP7d-40">
          <mxGeometry relative="1" as="geometry" />
        </mxCell>
        <mxCell id="gvvhsyVztJGPLxeGBP7d-52" style="rounded=0;orthogonalLoop=1;jettySize=auto;html=1;entryX=0.5;entryY=0;entryDx=0;entryDy=0;" edge="1" parent="1" target="gvvhsyVztJGPLxeGBP7d-41">
          <mxGeometry relative="1" as="geometry">
            <mxPoint x="580" y="560" as="sourcePoint" />
          </mxGeometry>
        </mxCell>
        <mxCell id="gvvhsyVztJGPLxeGBP7d-53" style="rounded=0;orthogonalLoop=1;jettySize=auto;html=1;exitX=0.5;exitY=1;exitDx=0;exitDy=0;entryX=0;entryY=0;entryDx=0;entryDy=0;" edge="1" parent="1" source="gvvhsyVztJGPLxeGBP7d-4" target="gvvhsyVztJGPLxeGBP7d-42">
          <mxGeometry relative="1" as="geometry" />
        </mxCell>
        <mxCell id="gvvhsyVztJGPLxeGBP7d-54" style="rounded=0;orthogonalLoop=1;jettySize=auto;html=1;exitX=1;exitY=1;exitDx=0;exitDy=0;" edge="1" parent="1" source="gvvhsyVztJGPLxeGBP7d-4" target="gvvhsyVztJGPLxeGBP7d-43">
          <mxGeometry relative="1" as="geometry" />
        </mxCell>
        <mxCell id="gvvhsyVztJGPLxeGBP7d-55" style="rounded=0;orthogonalLoop=1;jettySize=auto;html=1;exitX=1;exitY=0;exitDx=0;exitDy=0;entryX=0;entryY=1;entryDx=0;entryDy=0;" edge="1" parent="1" source="gvvhsyVztJGPLxeGBP7d-4" target="gvvhsyVztJGPLxeGBP7d-44">
          <mxGeometry relative="1" as="geometry" />
        </mxCell>
        <mxCell id="gvvhsyVztJGPLxeGBP7d-67" style="rounded=0;orthogonalLoop=1;jettySize=auto;html=1;exitX=0;exitY=1;exitDx=0;exitDy=0;entryX=1;entryY=0;entryDx=0;entryDy=0;" edge="1" parent="1" source="gvvhsyVztJGPLxeGBP7d-4" target="gvvhsyVztJGPLxeGBP7d-66">
          <mxGeometry relative="1" as="geometry" />
        </mxCell>
        <mxCell id="gvvhsyVztJGPLxeGBP7d-4" value="员工" style="rounded=0;whiteSpace=wrap;html=1;" vertex="1" parent="1">
          <mxGeometry x="530" y="500" width="120" height="60" as="geometry" />
        </mxCell>
        <mxCell id="gvvhsyVztJGPLxeGBP7d-62" style="rounded=0;orthogonalLoop=1;jettySize=auto;html=1;exitX=1;exitY=0;exitDx=0;exitDy=0;entryX=0;entryY=1;entryDx=0;entryDy=0;" edge="1" parent="1" source="gvvhsyVztJGPLxeGBP7d-5" target="gvvhsyVztJGPLxeGBP7d-59">
          <mxGeometry relative="1" as="geometry" />
        </mxCell>
        <mxCell id="gvvhsyVztJGPLxeGBP7d-63" style="rounded=0;orthogonalLoop=1;jettySize=auto;html=1;exitX=0;exitY=0;exitDx=0;exitDy=0;entryX=1;entryY=1;entryDx=0;entryDy=0;" edge="1" parent="1" source="gvvhsyVztJGPLxeGBP7d-5" target="gvvhsyVztJGPLxeGBP7d-60">
          <mxGeometry relative="1" as="geometry" />
        </mxCell>
        <mxCell id="gvvhsyVztJGPLxeGBP7d-64" style="rounded=0;orthogonalLoop=1;jettySize=auto;html=1;exitX=0;exitY=1;exitDx=0;exitDy=0;entryX=1;entryY=0;entryDx=0;entryDy=0;" edge="1" parent="1" source="gvvhsyVztJGPLxeGBP7d-5" target="gvvhsyVztJGPLxeGBP7d-58">
          <mxGeometry relative="1" as="geometry">
            <mxPoint x="511.51838142574434" y="227.58035789344535" as="targetPoint" />
          </mxGeometry>
        </mxCell>
        <mxCell id="gvvhsyVztJGPLxeGBP7d-65" style="rounded=0;orthogonalLoop=1;jettySize=auto;html=1;exitX=1;exitY=1;exitDx=0;exitDy=0;" edge="1" parent="1" source="gvvhsyVztJGPLxeGBP7d-5" target="gvvhsyVztJGPLxeGBP7d-57">
          <mxGeometry relative="1" as="geometry">
            <mxPoint x="698.4816185742229" y="237.58035789341875" as="targetPoint" />
          </mxGeometry>
        </mxCell>
        <mxCell id="gvvhsyVztJGPLxeGBP7d-5" value="部门" style="rounded=0;whiteSpace=wrap;html=1;" vertex="1" parent="1">
          <mxGeometry x="532.5" y="180" width="120" height="60" as="geometry" />
        </mxCell>
        <mxCell id="gvvhsyVztJGPLxeGBP7d-75" style="rounded=0;orthogonalLoop=1;jettySize=auto;html=1;exitX=0.127;exitY=1.005;exitDx=0;exitDy=0;exitPerimeter=0;" edge="1" parent="1" source="gvvhsyVztJGPLxeGBP7d-6" target="gvvhsyVztJGPLxeGBP7d-74">
          <mxGeometry relative="1" as="geometry" />
        </mxCell>
        <mxCell id="gvvhsyVztJGPLxeGBP7d-76" style="rounded=0;orthogonalLoop=1;jettySize=auto;html=1;exitX=0.5;exitY=1;exitDx=0;exitDy=0;entryX=0.5;entryY=0;entryDx=0;entryDy=0;" edge="1" parent="1" source="gvvhsyVztJGPLxeGBP7d-6" target="gvvhsyVztJGPLxeGBP7d-70">
          <mxGeometry relative="1" as="geometry" />
        </mxCell>
        <mxCell id="gvvhsyVztJGPLxeGBP7d-77" style="rounded=0;orthogonalLoop=1;jettySize=auto;html=1;exitX=1;exitY=1;exitDx=0;exitDy=0;entryX=0;entryY=0;entryDx=0;entryDy=0;" edge="1" parent="1" source="gvvhsyVztJGPLxeGBP7d-6" target="gvvhsyVztJGPLxeGBP7d-71">
          <mxGeometry relative="1" as="geometry" />
        </mxCell>
        <mxCell id="gvvhsyVztJGPLxeGBP7d-6" value="管理员" style="rounded=0;whiteSpace=wrap;html=1;" vertex="1" parent="1">
          <mxGeometry x="960" y="470" width="120" height="60" as="geometry" />
        </mxCell>
        <mxCell id="gvvhsyVztJGPLxeGBP7d-104" style="rounded=0;orthogonalLoop=1;jettySize=auto;html=1;exitX=0.5;exitY=1;exitDx=0;exitDy=0;entryX=0.5;entryY=0;entryDx=0;entryDy=0;" edge="1" parent="1" source="gvvhsyVztJGPLxeGBP7d-7" target="gvvhsyVztJGPLxeGBP7d-103">
          <mxGeometry relative="1" as="geometry" />
        </mxCell>
        <mxCell id="gvvhsyVztJGPLxeGBP7d-108" style="rounded=0;orthogonalLoop=1;jettySize=auto;html=1;exitX=0.75;exitY=0;exitDx=0;exitDy=0;entryX=1;entryY=0.5;entryDx=0;entryDy=0;" edge="1" parent="1" source="gvvhsyVztJGPLxeGBP7d-7" target="gvvhsyVztJGPLxeGBP7d-106">
          <mxGeometry relative="1" as="geometry" />
        </mxCell>
        <mxCell id="gvvhsyVztJGPLxeGBP7d-7" value="奖惩" style="rounded=0;whiteSpace=wrap;html=1;" vertex="1" parent="1">
          <mxGeometry x="750" y="815" width="120" height="60" as="geometry" />
        </mxCell>
        <mxCell id="gvvhsyVztJGPLxeGBP7d-95" style="rounded=0;orthogonalLoop=1;jettySize=auto;html=1;exitX=0;exitY=1;exitDx=0;exitDy=0;entryX=1;entryY=0;entryDx=0;entryDy=0;" edge="1" parent="1" source="gvvhsyVztJGPLxeGBP7d-8" target="gvvhsyVztJGPLxeGBP7d-93">
          <mxGeometry relative="1" as="geometry" />
        </mxCell>
        <mxCell id="gvvhsyVztJGPLxeGBP7d-96" style="rounded=0;orthogonalLoop=1;jettySize=auto;html=1;exitX=0;exitY=0.5;exitDx=0;exitDy=0;entryX=1;entryY=0.5;entryDx=0;entryDy=0;" edge="1" parent="1" source="gvvhsyVztJGPLxeGBP7d-8" target="gvvhsyVztJGPLxeGBP7d-88">
          <mxGeometry relative="1" as="geometry" />
        </mxCell>
        <mxCell id="gvvhsyVztJGPLxeGBP7d-97" style="rounded=0;orthogonalLoop=1;jettySize=auto;html=1;exitX=0;exitY=0;exitDx=0;exitDy=0;entryX=1;entryY=1;entryDx=0;entryDy=0;" edge="1" parent="1" source="gvvhsyVztJGPLxeGBP7d-8" target="gvvhsyVztJGPLxeGBP7d-92">
          <mxGeometry relative="1" as="geometry" />
        </mxCell>
        <mxCell id="gvvhsyVztJGPLxeGBP7d-98" style="rounded=0;orthogonalLoop=1;jettySize=auto;html=1;exitX=0.25;exitY=0;exitDx=0;exitDy=0;entryX=0.5;entryY=1;entryDx=0;entryDy=0;" edge="1" parent="1" source="gvvhsyVztJGPLxeGBP7d-8" target="gvvhsyVztJGPLxeGBP7d-86">
          <mxGeometry relative="1" as="geometry" />
        </mxCell>
        <mxCell id="gvvhsyVztJGPLxeGBP7d-99" style="rounded=0;orthogonalLoop=1;jettySize=auto;html=1;exitX=0.75;exitY=0;exitDx=0;exitDy=0;entryX=0.5;entryY=1;entryDx=0;entryDy=0;" edge="1" parent="1" source="gvvhsyVztJGPLxeGBP7d-8" target="gvvhsyVztJGPLxeGBP7d-87">
          <mxGeometry relative="1" as="geometry" />
        </mxCell>
        <mxCell id="gvvhsyVztJGPLxeGBP7d-100" style="rounded=0;orthogonalLoop=1;jettySize=auto;html=1;exitX=1;exitY=0;exitDx=0;exitDy=0;entryX=0;entryY=1;entryDx=0;entryDy=0;" edge="1" parent="1" source="gvvhsyVztJGPLxeGBP7d-8" target="gvvhsyVztJGPLxeGBP7d-91">
          <mxGeometry relative="1" as="geometry" />
        </mxCell>
        <mxCell id="gvvhsyVztJGPLxeGBP7d-101" style="rounded=0;orthogonalLoop=1;jettySize=auto;html=1;exitX=1;exitY=1;exitDx=0;exitDy=0;entryX=0;entryY=0.5;entryDx=0;entryDy=0;" edge="1" parent="1" source="gvvhsyVztJGPLxeGBP7d-8" target="gvvhsyVztJGPLxeGBP7d-90">
          <mxGeometry relative="1" as="geometry" />
        </mxCell>
        <mxCell id="gvvhsyVztJGPLxeGBP7d-102" style="rounded=0;orthogonalLoop=1;jettySize=auto;html=1;exitX=0.5;exitY=1;exitDx=0;exitDy=0;entryX=0.5;entryY=0;entryDx=0;entryDy=0;" edge="1" parent="1" source="gvvhsyVztJGPLxeGBP7d-8" target="gvvhsyVztJGPLxeGBP7d-94">
          <mxGeometry relative="1" as="geometry" />
        </mxCell>
        <mxCell id="gvvhsyVztJGPLxeGBP7d-8" value="HR" style="rounded=0;whiteSpace=wrap;html=1;" vertex="1" parent="1">
          <mxGeometry x="10" y="405" width="120" height="60" as="geometry" />
        </mxCell>
        <mxCell id="gvvhsyVztJGPLxeGBP7d-113" value="1" style="rounded=0;orthogonalLoop=1;jettySize=auto;html=1;exitX=1;exitY=0.5;exitDx=0;exitDy=0;entryX=0;entryY=0.5;entryDx=0;entryDy=0;" edge="1" parent="1" source="gvvhsyVztJGPLxeGBP7d-9" target="gvvhsyVztJGPLxeGBP7d-112">
          <mxGeometry relative="1" as="geometry">
            <Array as="points">
              <mxPoint x="490" y="830" />
            </Array>
          </mxGeometry>
        </mxCell>
        <mxCell id="gvvhsyVztJGPLxeGBP7d-118" style="rounded=0;orthogonalLoop=1;jettySize=auto;html=1;exitX=0.25;exitY=0;exitDx=0;exitDy=0;entryX=1;entryY=1;entryDx=0;entryDy=0;" edge="1" parent="1" source="gvvhsyVztJGPLxeGBP7d-9" target="gvvhsyVztJGPLxeGBP7d-116">
          <mxGeometry relative="1" as="geometry" />
        </mxCell>
        <mxCell id="gvvhsyVztJGPLxeGBP7d-119" style="rounded=0;orthogonalLoop=1;jettySize=auto;html=1;exitX=0.5;exitY=1;exitDx=0;exitDy=0;entryX=0.5;entryY=0;entryDx=0;entryDy=0;" edge="1" parent="1" source="gvvhsyVztJGPLxeGBP7d-9" target="gvvhsyVztJGPLxeGBP7d-117">
          <mxGeometry relative="1" as="geometry" />
        </mxCell>
        <mxCell id="gvvhsyVztJGPLxeGBP7d-9" value="考勤系统" style="rounded=0;whiteSpace=wrap;html=1;" vertex="1" parent="1">
          <mxGeometry x="357.5" y="790" width="120" height="60" as="geometry" />
        </mxCell>
        <mxCell id="gvvhsyVztJGPLxeGBP7d-36" value="1" style="rounded=0;orthogonalLoop=1;jettySize=auto;html=1;exitX=0.5;exitY=0;exitDx=0;exitDy=0;entryX=0.5;entryY=1;entryDx=0;entryDy=0;" edge="1" parent="1" source="gvvhsyVztJGPLxeGBP7d-17" target="gvvhsyVztJGPLxeGBP7d-5">
          <mxGeometry relative="1" as="geometry" />
        </mxCell>
        <mxCell id="gvvhsyVztJGPLxeGBP7d-17" value="属于" style="rhombus;whiteSpace=wrap;html=1;" vertex="1" parent="1">
          <mxGeometry x="532.5" y="310" width="115" height="60" as="geometry" />
        </mxCell>
        <mxCell id="gvvhsyVztJGPLxeGBP7d-37" style="rounded=0;orthogonalLoop=1;jettySize=auto;html=1;exitX=0;exitY=0.5;exitDx=0;exitDy=0;entryX=1;entryY=0.5;entryDx=0;entryDy=0;" edge="1" parent="1" source="gvvhsyVztJGPLxeGBP7d-18" target="gvvhsyVztJGPLxeGBP7d-8">
          <mxGeometry relative="1" as="geometry" />
        </mxCell>
        <mxCell id="gvvhsyVztJGPLxeGBP7d-121" value="n" style="edgeLabel;html=1;align=center;verticalAlign=middle;resizable=0;points=[];" vertex="1" connectable="0" parent="gvvhsyVztJGPLxeGBP7d-37">
          <mxGeometry x="0.5515" relative="1" as="geometry">
            <mxPoint x="-1" as="offset" />
          </mxGeometry>
        </mxCell>
        <mxCell id="gvvhsyVztJGPLxeGBP7d-18" value="招聘" style="rhombus;whiteSpace=wrap;html=1;" vertex="1" parent="1">
          <mxGeometry x="230" y="410" width="115" height="60" as="geometry" />
        </mxCell>
        <mxCell id="gvvhsyVztJGPLxeGBP7d-28" value="1" style="rounded=0;orthogonalLoop=1;jettySize=auto;html=1;exitX=0.5;exitY=1;exitDx=0;exitDy=0;" edge="1" parent="1" source="gvvhsyVztJGPLxeGBP7d-19" target="gvvhsyVztJGPLxeGBP7d-9">
          <mxGeometry relative="1" as="geometry" />
        </mxCell>
        <mxCell id="gvvhsyVztJGPLxeGBP7d-19" value="考勤" style="rhombus;whiteSpace=wrap;html=1;" vertex="1" parent="1">
          <mxGeometry x="368" y="680" width="115" height="60" as="geometry" />
        </mxCell>
        <mxCell id="gvvhsyVztJGPLxeGBP7d-33" value="1" style="rounded=0;orthogonalLoop=1;jettySize=auto;html=1;exitX=1;exitY=0.5;exitDx=0;exitDy=0;entryX=0;entryY=0.5;entryDx=0;entryDy=0;" edge="1" parent="1" source="gvvhsyVztJGPLxeGBP7d-20" target="gvvhsyVztJGPLxeGBP7d-6">
          <mxGeometry relative="1" as="geometry" />
        </mxCell>
        <mxCell id="gvvhsyVztJGPLxeGBP7d-20" value="管理" style="rhombus;whiteSpace=wrap;html=1;" vertex="1" parent="1">
          <mxGeometry x="760" y="485" width="115" height="60" as="geometry" />
        </mxCell>
        <mxCell id="gvvhsyVztJGPLxeGBP7d-31" value="n" style="rounded=0;orthogonalLoop=1;jettySize=auto;html=1;exitX=0.5;exitY=1;exitDx=0;exitDy=0;" edge="1" parent="1" source="gvvhsyVztJGPLxeGBP7d-21" target="gvvhsyVztJGPLxeGBP7d-7">
          <mxGeometry relative="1" as="geometry" />
        </mxCell>
        <mxCell id="gvvhsyVztJGPLxeGBP7d-21" value="奖惩" style="rhombus;whiteSpace=wrap;html=1;" vertex="1" parent="1">
          <mxGeometry x="710" y="680" width="115" height="60" as="geometry" />
        </mxCell>
        <mxCell id="gvvhsyVztJGPLxeGBP7d-30" style="rounded=0;orthogonalLoop=1;jettySize=auto;html=1;exitX=0.75;exitY=1;exitDx=0;exitDy=0;entryX=0.522;entryY=0;entryDx=0;entryDy=0;entryPerimeter=0;" edge="1" parent="1" source="gvvhsyVztJGPLxeGBP7d-4" target="gvvhsyVztJGPLxeGBP7d-21">
          <mxGeometry relative="1" as="geometry" />
        </mxCell>
        <mxCell id="gvvhsyVztJGPLxeGBP7d-124" value="1" style="edgeLabel;html=1;align=center;verticalAlign=middle;resizable=0;points=[];" vertex="1" connectable="0" parent="gvvhsyVztJGPLxeGBP7d-30">
          <mxGeometry x="-0.5046" y="-1" relative="1" as="geometry">
            <mxPoint x="1" as="offset" />
          </mxGeometry>
        </mxCell>
        <mxCell id="gvvhsyVztJGPLxeGBP7d-38" value="姓名" style="ellipse;whiteSpace=wrap;html=1;" vertex="1" parent="1">
          <mxGeometry x="520" y="400" width="60" height="50" as="geometry" />
        </mxCell>
        <mxCell id="gvvhsyVztJGPLxeGBP7d-39" value="员工号" style="ellipse;whiteSpace=wrap;html=1;" vertex="1" parent="1">
          <mxGeometry x="600" y="400" width="60" height="50" as="geometry" />
        </mxCell>
        <mxCell id="gvvhsyVztJGPLxeGBP7d-40" value="身份证号" style="ellipse;whiteSpace=wrap;html=1;" vertex="1" parent="1">
          <mxGeometry x="425" y="510" width="60" height="50" as="geometry" />
        </mxCell>
        <mxCell id="gvvhsyVztJGPLxeGBP7d-41" value="地址" style="ellipse;whiteSpace=wrap;html=1;" vertex="1" parent="1">
          <mxGeometry x="522.5" y="610" width="60" height="50" as="geometry" />
        </mxCell>
        <mxCell id="gvvhsyVztJGPLxeGBP7d-42" value="职位" style="ellipse;whiteSpace=wrap;html=1;" vertex="1" parent="1">
          <mxGeometry x="610" y="610" width="60" height="50" as="geometry" />
        </mxCell>
        <mxCell id="gvvhsyVztJGPLxeGBP7d-43" value="年龄" style="ellipse;whiteSpace=wrap;html=1;" vertex="1" parent="1">
          <mxGeometry x="680" y="550" width="60" height="50" as="geometry" />
        </mxCell>
        <mxCell id="gvvhsyVztJGPLxeGBP7d-44" value="性别" style="ellipse;whiteSpace=wrap;html=1;" vertex="1" parent="1">
          <mxGeometry x="670" y="440" width="60" height="50" as="geometry" />
        </mxCell>
        <mxCell id="gvvhsyVztJGPLxeGBP7d-45" value="工资" style="ellipse;whiteSpace=wrap;html=1;" vertex="1" parent="1">
          <mxGeometry x="450" y="435" width="60" height="50" as="geometry" />
        </mxCell>
        <mxCell id="gvvhsyVztJGPLxeGBP7d-57" value="部门编号" style="ellipse;whiteSpace=wrap;html=1;" vertex="1" parent="1">
          <mxGeometry x="690" y="270" width="60" height="50" as="geometry" />
        </mxCell>
        <mxCell id="gvvhsyVztJGPLxeGBP7d-58" value="部门名称" style="ellipse;whiteSpace=wrap;html=1;" vertex="1" parent="1">
          <mxGeometry x="460" y="260" width="60" height="50" as="geometry" />
        </mxCell>
        <mxCell id="gvvhsyVztJGPLxeGBP7d-59" value="部门电话" style="ellipse;whiteSpace=wrap;html=1;" vertex="1" parent="1">
          <mxGeometry x="690" y="110" width="60" height="50" as="geometry" />
        </mxCell>
        <mxCell id="gvvhsyVztJGPLxeGBP7d-60" value="经理" style="ellipse;whiteSpace=wrap;html=1;" vertex="1" parent="1">
          <mxGeometry x="460" y="110" width="60" height="50" as="geometry" />
        </mxCell>
        <mxCell id="gvvhsyVztJGPLxeGBP7d-66" value="电话" style="ellipse;whiteSpace=wrap;html=1;" vertex="1" parent="1">
          <mxGeometry x="440" y="570" width="60" height="50" as="geometry" />
        </mxCell>
        <mxCell id="gvvhsyVztJGPLxeGBP7d-68" value="电话" style="ellipse;whiteSpace=wrap;html=1;" vertex="1" parent="1">
          <mxGeometry x="940" y="360" width="60" height="50" as="geometry" />
        </mxCell>
        <mxCell id="gvvhsyVztJGPLxeGBP7d-69" value="性别" style="ellipse;whiteSpace=wrap;html=1;" vertex="1" parent="1">
          <mxGeometry x="1070" y="370" width="60" height="50" as="geometry" />
        </mxCell>
        <mxCell id="gvvhsyVztJGPLxeGBP7d-70" value="年龄" style="ellipse;whiteSpace=wrap;html=1;" vertex="1" parent="1">
          <mxGeometry x="1020" y="580" width="60" height="50" as="geometry" />
        </mxCell>
        <mxCell id="gvvhsyVztJGPLxeGBP7d-71" value="职位" style="ellipse;whiteSpace=wrap;html=1;" vertex="1" parent="1">
          <mxGeometry x="1130" y="560" width="60" height="50" as="geometry" />
        </mxCell>
        <mxCell id="gvvhsyVztJGPLxeGBP7d-72" value="身份证号" style="ellipse;whiteSpace=wrap;html=1;" vertex="1" parent="1">
          <mxGeometry x="1130" y="455" width="60" height="50" as="geometry" />
        </mxCell>
        <mxCell id="gvvhsyVztJGPLxeGBP7d-73" value="工资" style="ellipse;whiteSpace=wrap;html=1;" vertex="1" parent="1">
          <mxGeometry x="850" y="410" width="60" height="50" as="geometry" />
        </mxCell>
        <mxCell id="gvvhsyVztJGPLxeGBP7d-74" value="姓名" style="ellipse;whiteSpace=wrap;html=1;" vertex="1" parent="1">
          <mxGeometry x="910" y="565" width="60" height="50" as="geometry" />
        </mxCell>
        <mxCell id="gvvhsyVztJGPLxeGBP7d-82" style="rounded=0;orthogonalLoop=1;jettySize=auto;html=1;exitX=0;exitY=0.25;exitDx=0;exitDy=0;entryX=1;entryY=1;entryDx=0;entryDy=0;" edge="1" parent="1">
          <mxGeometry relative="1" as="geometry">
            <mxPoint x="960" y="485" as="sourcePoint" />
            <mxPoint x="902" y="452" as="targetPoint" />
          </mxGeometry>
        </mxCell>
        <mxCell id="gvvhsyVztJGPLxeGBP7d-83" style="rounded=0;orthogonalLoop=1;jettySize=auto;html=1;exitX=0.25;exitY=0;exitDx=0;exitDy=0;entryX=0.5;entryY=1;entryDx=0;entryDy=0;" edge="1" parent="1">
          <mxGeometry relative="1" as="geometry">
            <mxPoint x="990" y="470" as="sourcePoint" />
            <mxPoint x="970" y="410" as="targetPoint" />
          </mxGeometry>
        </mxCell>
        <mxCell id="gvvhsyVztJGPLxeGBP7d-84" style="rounded=0;orthogonalLoop=1;jettySize=auto;html=1;exitX=0.75;exitY=0;exitDx=0;exitDy=0;entryX=0;entryY=1;entryDx=0;entryDy=0;" edge="1" parent="1">
          <mxGeometry relative="1" as="geometry">
            <mxPoint x="1050" y="470" as="sourcePoint" />
            <mxPoint x="1078" y="412" as="targetPoint" />
          </mxGeometry>
        </mxCell>
        <mxCell id="gvvhsyVztJGPLxeGBP7d-85" style="rounded=0;orthogonalLoop=1;jettySize=auto;html=1;exitX=1;exitY=0.5;exitDx=0;exitDy=0;entryX=0;entryY=1;entryDx=0;entryDy=0;" edge="1" parent="1">
          <mxGeometry relative="1" as="geometry">
            <mxPoint x="1080" y="500" as="sourcePoint" />
            <mxPoint x="1138" y="497" as="targetPoint" />
          </mxGeometry>
        </mxCell>
        <mxCell id="gvvhsyVztJGPLxeGBP7d-86" value="姓名" style="ellipse;whiteSpace=wrap;html=1;" vertex="1" parent="1">
          <mxGeometry x="5" y="310" width="60" height="50" as="geometry" />
        </mxCell>
        <mxCell id="gvvhsyVztJGPLxeGBP7d-87" value="员工号" style="ellipse;whiteSpace=wrap;html=1;" vertex="1" parent="1">
          <mxGeometry x="85" y="310" width="60" height="50" as="geometry" />
        </mxCell>
        <mxCell id="gvvhsyVztJGPLxeGBP7d-88" value="身份证号" style="ellipse;whiteSpace=wrap;html=1;" vertex="1" parent="1">
          <mxGeometry x="-90" y="420" width="60" height="50" as="geometry" />
        </mxCell>
        <mxCell id="gvvhsyVztJGPLxeGBP7d-90" value="年龄" style="ellipse;whiteSpace=wrap;html=1;" vertex="1" parent="1">
          <mxGeometry x="165" y="460" width="60" height="50" as="geometry" />
        </mxCell>
        <mxCell id="gvvhsyVztJGPLxeGBP7d-91" value="性别" style="ellipse;whiteSpace=wrap;html=1;" vertex="1" parent="1">
          <mxGeometry x="155" y="350" width="60" height="50" as="geometry" />
        </mxCell>
        <mxCell id="gvvhsyVztJGPLxeGBP7d-92" value="工资" style="ellipse;whiteSpace=wrap;html=1;" vertex="1" parent="1">
          <mxGeometry x="-65" y="345" width="60" height="50" as="geometry" />
        </mxCell>
        <mxCell id="gvvhsyVztJGPLxeGBP7d-93" value="电话" style="ellipse;whiteSpace=wrap;html=1;" vertex="1" parent="1">
          <mxGeometry x="-75" y="480" width="60" height="50" as="geometry" />
        </mxCell>
        <mxCell id="gvvhsyVztJGPLxeGBP7d-94" value="招聘职位" style="ellipse;whiteSpace=wrap;html=1;" vertex="1" parent="1">
          <mxGeometry x="40" y="510" width="60" height="50" as="geometry" />
        </mxCell>
        <mxCell id="gvvhsyVztJGPLxeGBP7d-103" value="奖惩信息" style="ellipse;whiteSpace=wrap;html=1;" vertex="1" parent="1">
          <mxGeometry x="770" y="910" width="60" height="50" as="geometry" />
        </mxCell>
        <mxCell id="gvvhsyVztJGPLxeGBP7d-105" value="奖惩对象" style="ellipse;whiteSpace=wrap;html=1;" vertex="1" parent="1">
          <mxGeometry x="920" y="820" width="60" height="50" as="geometry" />
        </mxCell>
        <mxCell id="gvvhsyVztJGPLxeGBP7d-106" value="奖惩方案" style="ellipse;whiteSpace=wrap;html=1;" vertex="1" parent="1">
          <mxGeometry x="880" y="720" width="60" height="50" as="geometry" />
        </mxCell>
        <mxCell id="gvvhsyVztJGPLxeGBP7d-110" style="rounded=0;orthogonalLoop=1;jettySize=auto;html=1;exitX=1;exitY=0.5;exitDx=0;exitDy=0;entryX=0;entryY=0.5;entryDx=0;entryDy=0;" edge="1" parent="1" source="gvvhsyVztJGPLxeGBP7d-7" target="gvvhsyVztJGPLxeGBP7d-105">
          <mxGeometry relative="1" as="geometry">
            <mxPoint x="870" y="837.5" as="sourcePoint" />
            <mxPoint x="900" y="842.5" as="targetPoint" />
          </mxGeometry>
        </mxCell>
        <mxCell id="gvvhsyVztJGPLxeGBP7d-114" style="rounded=0;orthogonalLoop=1;jettySize=auto;html=1;exitX=1;exitY=0.5;exitDx=0;exitDy=0;entryX=0;entryY=0.5;entryDx=0;entryDy=0;" edge="1" parent="1" source="gvvhsyVztJGPLxeGBP7d-112" target="gvvhsyVztJGPLxeGBP7d-7">
          <mxGeometry relative="1" as="geometry" />
        </mxCell>
        <mxCell id="gvvhsyVztJGPLxeGBP7d-125" value="1" style="edgeLabel;html=1;align=center;verticalAlign=middle;resizable=0;points=[];" vertex="1" connectable="0" parent="gvvhsyVztJGPLxeGBP7d-114">
          <mxGeometry x="0.3298" y="4" relative="1" as="geometry">
            <mxPoint x="-1" y="-1" as="offset" />
          </mxGeometry>
        </mxCell>
        <mxCell id="gvvhsyVztJGPLxeGBP7d-112" value="决定" style="rhombus;whiteSpace=wrap;html=1;" vertex="1" parent="1">
          <mxGeometry x="535" y="810" width="115" height="60" as="geometry" />
        </mxCell>
        <mxCell id="gvvhsyVztJGPLxeGBP7d-116" value="上下班时间" style="ellipse;whiteSpace=wrap;html=1;" vertex="1" parent="1">
          <mxGeometry x="310" y="720" width="60" height="50" as="geometry" />
        </mxCell>
        <mxCell id="gvvhsyVztJGPLxeGBP7d-117" value="编号" style="ellipse;whiteSpace=wrap;html=1;" vertex="1" parent="1">
          <mxGeometry x="382.5" y="890" width="60" height="50" as="geometry" />
        </mxCell>
      </root>
    </mxGraphModel>
  </diagram>
</mxfile>
